# File created by Blade
# Date/Time:  Thu Jan 22 15:50:06 2015
#---------------------------------------------------------
:version 1.10
:name HOM
:units
  mass 1.0
  length 1.000000
  angle deg
:documentation
     Acclaim Skeleton File
:root
   axis xyz
   order TX TY TZ RX RY RZ
   position 0.000000 0.000000 0.000000
   orientation 0 0 0
:bonedata
   begin
      id 1
      name RightUpLeg_dum
      direction -1.000000 0.000000 0.000000
      length 3.766986
      axis 0.0 0.0 0.0 xyz
   end
   begin
      id 2
      name LeftUpLeg_dum
      direction 1.000000 0.000000 0.000000
      length 3.766986
      axis 0.0 0.0 0.0 xyz
   end
   begin
      id 3
      name Spine_dum
      direction 0.000000 1.000000 0.000000
      length 7.779697
      axis 0.0 0.0 0.0 xyz
   end
   begin
      id 4
      name RightUpLeg
      direction 0.000000 -1.000000 0.000000
      length 18.017682
      axis 0.0 0.0 0.0 xyz
      dof rx ry rz
   end
   begin
      id 5
      name RightLeg
      direction 0.000000 -1.000000 0.000000
      length 16.881075
      axis 0.0 0.0 0.0 xyz
      dof rx ry rz
   end
   begin
      id 6
      name RightFoot
      direction 0.000000 -0.258819 0.965926
      length 5.770812
      axis 15.0 0.0 0.0 xyz
      dof rx ry rz
   end
   begin
      id 7
      name RightToeBase
      direction 0.000000 0.000000 1.000000
      length 2.952750
      axis 0.0 0.0 0.0 xyz
      dof rx ry rz
   end
   begin
      id 8
      name LeftUpLeg
      direction 0.000000 -1.000000 0.000000
      length 18.017682
      axis 0.0 0.0 0.0 xyz
      dof rx ry rz
   end
   begin
      id 9
      name LeftLeg
      direction 0.000000 -1.000000 0.000000
      length 16.881075
      axis 0.0 0.0 0.0 xyz
      dof rx ry rz
   end
   begin
      id 10
      name LeftFoot
      direction 0.000000 -0.258819 0.965926
      length 5.770812
      axis 15.0 0.0 0.0 xyz
      dof rx ry rz
   end
   begin
      id 11
      name LeftToeBase
      direction 0.000000 0.000000 1.000000
      length 2.952750
      axis 0.0 0.0 0.0 xyz
      dof rx ry rz
   end
   begin
      id 12
      name Spine
      direction 0.000000 1.000000 0.000000
      length 0.000000
      axis 0.0 0.0 0.0 xyz
      dof rx ry rz
   end
   begin
      id 13
      name Spine_dum1
      direction 0.000000 1.000000 0.000000
      length 10.941760
      axis 0.0 0.0 0.0 xyz
   end
   begin
      id 14
      name Spine_dum2
      direction 0.000000 1.000000 0.000000
      length 10.941760
      axis 0.0 0.0 0.0 xyz
   end
   begin
      id 15
      name Spine_dum3
      direction 0.000000 1.000000 0.000000
      length 16.646042
      axis 0.0 0.0 0.0 xyz
   end
   begin
      id 16
      name RightShoulder
      direction -1.000000 0.000000 0.000000
      length 7.708937
      axis 0.0 0.0 90.0 xyz
      dof rx ry rz
   end
   begin
      id 17
      name RightArm
      direction -1.000000 0.000000 0.000000
      length 11.521345
      axis 0.0 0.0 90.0 xyz
      dof rx ry rz
   end
   begin
      id 18
      name RightForeArm
      direction -1.000000 0.000000 0.000000
      length 10.175898
      axis 0.0 0.0 90.0 xyz
      dof ry rz rx
   end
   begin
      id 19
      name RightHand
      direction -1.000000 0.000000 0.000000
      length 0.000000
      axis 0.0 0.0 90.0 xyz
      dof rx ry rz
   end
   begin
      id 20
      name RightHand_dum1
      direction -1.000000 0.000000 0.000000
      length 3.937000
      axis 0.0 0.0 90.0 xyz
   end
   begin
      id 21
      name RightHand_dum2
      direction 0.000000 0.000000 0.000000
      length 0.000000
      axis 0.0 0.0 90.0 xyz
   end
   begin
      id 22
      name RightHandThumb1
      direction 0.000000 0.000000 1.000000
      length 3.937000
      axis 0.0 0.0 90.0 xyz
      dof rx rz ry
   end
   begin
      id 23
      name LeftShoulder
      direction 1.000000 0.000000 0.000000
      length 7.708937
      axis 0.0 0.0 -90.0 xyz
      dof rx ry rz
   end
   begin
      id 24
      name LeftArm
      direction 1.000000 0.000000 0.000000
      length 11.521345
      axis 0.0 0.0 -90.0 xyz
      dof rx ry rz
   end
   begin
      id 25
      name LeftForeArm
      direction 1.000000 0.000000 0.000000
      length 10.175898
      axis 0.0 0.0 -90.0 xyz
      dof ry rz rx
   end
   begin
      id 26
      name LeftHand
      direction 1.000000 0.000000 0.000000
      length 0.000000
      axis 0.0 0.0 -90.0 xyz
      dof rx ry rz
   end
   begin
      id 27
      name LeftHand_dum1
      direction 1.000000 0.000000 0.000000
      length 3.937000
      axis 0.0 0.0 -90.0 xyz
   end
   begin
      id 28
      name LeftHand_dum2
      direction 0.000000 0.000000 0.000000
      length 0.000000
      axis 0.0 0.0 -90.0 xyz
   end
   begin
      id 29
      name LeftHandThumb1
      direction 0.000000 0.000000 1.000000
      length 3.937000
      axis 0.0 0.0 -90.0 xyz
      dof rx rz ry
   end
   begin
      id 30
      name Head
      direction 0.000000 1.000000 0.000000
      length 4.527550
      axis 0.0 0.0 0.0 xyz
      dof rx ry rz
   end
:hierarchy
   begin
      root RightUpLeg_dum LeftUpLeg_dum Spine_dum
      RightUpLeg_dum RightUpLeg
      LeftUpLeg_dum LeftUpLeg
      Spine_dum Spine
      RightUpLeg RightLeg
      RightLeg RightFoot
      RightFoot RightToeBase
      LeftUpLeg LeftLeg
      LeftLeg LeftFoot
      LeftFoot LeftToeBase
      Spine Spine_dum1 Spine_dum2 Spine_dum3
      Spine_dum1 RightShoulder
      Spine_dum2 LeftShoulder
      Spine_dum3 Head
      RightShoulder RightArm
      RightArm RightForeArm
      RightForeArm RightHand
      RightHand RightHand_dum1 RightHand_dum2
      RightHand_dum2 RightHandThumb1
      LeftShoulder LeftArm
      LeftArm LeftForeArm
      LeftForeArm LeftHand
      LeftHand LeftHand_dum1 LeftHand_dum2
      LeftHand_dum2 LeftHandThumb1
   end

# File created by Blade
# Date/Time:  Thu Jan 22 15:49:58 2015
# Frame Rate: 120.000 fps
#------------------------------------------------------
:FULLY-SPECIFIED
:DEGREES
206
root 3.162679 37.055970 5.238197 -8.092520 -6.010366 2.470432
RightUpLeg 15.807881 -4.391018 -6.002826
RightLeg -4.562389 -0.000000 0.000000
RightFoot -12.002888 -10.892204 16.466366
RightToeBase 14.763969 -0.000000 -0.000000
LeftUpLeg 15.355218 7.246549 2.498153
LeftLeg -1.822063 -0.000000 0.000000
LeftFoot -8.840200 8.879185 -17.005157
LeftToeBase 8.350308 -0.000000 -0.000000
Spine 5.564513 -3.304580 -2.974372
RightShoulder -1.984078 -4.782480 -34.714041
RightArm 29.119988 39.614148 32.066360
RightForeArm 25.328134 0.000000 78.416993
RightHand 10.646884 0.000000 -1.898422
RightHandThumb1 -24.326973 -0.000000 -32.862282
LeftShoulder -23.834470 24.262079 29.085201
LeftArm 102.365287 -67.152308 -100.438707
LeftForeArm 19.960829 -0.000000 81.487558
LeftHand -19.076003 -0.000000 5.740530
LeftHandThumb1 -26.253704 0.000000 33.147579
Head 33.224451 10.655546 4.078890
207
root 3.163594 37.055776 5.239741 -8.105767 -6.073217 2.474533
RightUpLeg 15.809245 -4.338887 -6.004197
RightLeg -4.561949 -0.000000 0.000000
RightFoot -12.002379 -10.880636 16.456006
RightToeBase 14.760885 -0.000000 -0.000000
LeftUpLeg 15.380613 7.315415 2.506058
LeftLeg -1.824806 -0.000000 0.000000
LeftFoot -8.836921 8.880847 -16.994255
LeftToeBase 8.287266 -0.000000 -0.000000
Spine 5.512940 -3.357195 -2.966945
RightShoulder -1.940709 -4.469257 -34.963031
RightArm 30.044230 39.747784 32.702422
RightForeArm 26.194976 0.000000 78.926547
RightHand 10.765801 -0.000000 -1.813811
RightHandThumb1 -24.326973 -0.000000 -32.862282
LeftShoulder -23.861322 24.114878 29.315994
LeftArm 104.770097 -66.844055 -102.359050
LeftForeArm 19.685660 -0.000000 82.517929
LeftHand -19.101640 0.000000 5.916918
LeftHandThumb1 -26.253704 0.000000 33.147579
Head 33.667794 10.596489 4.015290
208
root 3.164669 37.055091 5.241342 -8.121859 -6.130476 2.475707
RightUpLeg 15.814276 -4.295911 -6.004931
RightLeg -4.557209 -0.000000 0.000000
RightFoot -12.000462 -10.847756 16.463486
RightToeBase 14.750209 -0.000000 -0.000000
LeftUpLeg 15.412552 7.377527 2.512775
LeftLeg -1.834495 -0.000000 0.000000
LeftFoot -8.846897 8.892024 -16.982766
LeftToeBase 8.286495 -0.000000 -0.000000
Spine 5.464685 -3.409963 -2.959062
RightShoulder -1.917340 -4.305502 -35.179884
RightArm 31.140935 39.995900 33.416732
RightForeArm 26.896169 -0.000000 79.393180
RightHand 10.881793 0.000000 -1.841499
RightHandThumb1 -24.326973 -0.000000 -32.862282
LeftShoulder -23.816910 23.793232 29.702635
LeftArm 106.517008 -66.569837 -103.744846
LeftForeArm 19.262176 -0.000000 83.564958
LeftHand -18.874916 -0.000000 6.002623
LeftHandThumb1 -26.253704 0.000000 33.147579
Head 34.109660 10.535752 3.962750
209
root 3.165735 37.054434 5.243385 -8.136373 -6.197622 2.480084
RightUpLeg 15.817217 -4.229114 -6.005124
RightLeg -4.556298 -0.000000 0.000000
RightFoot -12.000046 -10.831411 16.444306
RightToeBase 14.749905 -0.000000 -0.000000
LeftUpLeg 15.440720 7.460416 2.524008
LeftLeg -1.835698 -0.000000 0.000000
LeftFoot -8.849919 8.877396 -16.978570
LeftToeBase 8.306880 -0.000000 -0.000000
Spine 5.418323 -3.452434 -2.949867
RightShoulder -1.886679 -4.005186 -35.436980
RightArm 32.122863 40.134133 34.109260
RightForeArm 27.545685 -0.000000 79.872270
RightHand 10.839338 -0.000000 -1.740465
RightHandThumb1 -24.326973 -0.000000 -32.862282
LeftShoulder -23.771824 23.459973 30.070367
LeftArm 108.277245 -66.267266 -105.118480
LeftForeArm 18.833766 -0.000000 84.633795
LeftHand -18.941038 -0.000000 5.695616
LeftHandThumb1 -26.253704 0.000000 33.147579
Head 34.538998 10.498791 3.906531
210
root 3.167318 37.053790 5.245277 -8.150770 -6.256539 2.481505
RightUpLeg 15.821886 -4.166260 -6.002618
RightLeg -4.555072 -0.000000 0.000000
RightFoot -12.004771 -10.819913 16.457110
RightToeBase 14.764955 -0.000000 -0.000000
LeftUpLeg 15.466943 7.534568 2.539590
LeftLeg -1.836016 -0.000000 0.000000
LeftFoot -8.839199 8.843561 -16.939100
LeftToeBase 8.288272 -0.000000 -0.000000
Spine 5.381136 -3.518320 -2.949030
RightShoulder -2.028442 -4.854582 -35.306710
RightArm 34.356795 41.214369 35.100616
RightForeArm 28.350222 -0.000000 80.092385
RightHand 10.880851 0.000000 -1.453532
RightHandThumb1 -24.326973 -0.000000 -32.862282
LeftShoulder -23.786826 23.235360 30.398997
LeftArm 110.272607 -65.858935 -106.702410
LeftForeArm 18.543583 -0.000000 85.673930
LeftHand -18.933218 0.000000 5.564318
LeftHandThumb1 -26.253704 0.000000 33.147579
Head 34.944353 10.436595 3.844363
211
root 3.169269 37.053372 5.246612 -8.161264 -6.320349 2.485197
RightUpLeg 15.820196 -4.091597 -6.001774
RightLeg -4.553061 -0.000000 0.000000
RightFoot -12.006909 -10.799419 16.456183
RightToeBase 14.743502 -0.000000 -0.000000
LeftUpLeg 15.483983 7.613171 2.547505
LeftLeg -1.828144 -0.000000 0.000000
LeftFoot -8.850323 8.830134 -16.937154
LeftToeBase 8.290644 -0.000000 -0.000000
Spine 5.333517 -3.586939 -2.929838
RightShoulder -1.988287 -4.930069 -35.463057
RightArm 35.724923 41.656585 35.885324
RightForeArm 28.928087 -0.000000 80.460951
RightHand 10.967685 -0.000000 -1.418420
RightHandThumb1 -24.326973 -0.000000 -32.862282
LeftShoulder -23.752051 22.962773 30.702268
LeftArm 112.171879 -65.524856 -108.147189
LeftForeArm 18.096897 -0.000000 86.671399
LeftHand -18.731544 -0.000000 6.052570
LeftHandThumb1 -26.253704 0.000000 33.147579
Head 35.381660 10.417241 3.775783
